<svg version="1.1" id="레이어_1" xmlns="http://www.w3.org/2000/svg" xmlns:xlink="http://www.w3.org/1999/xlink" x="0px"
	 y="0px" width="43.897px" height="43.346px" viewBox="0 0 43.897 43.346" enable-background="new 0 0 43.897 43.346"
	 xml:space="preserve">
<g>
	<g>
		<g>
			<path fill="none" stroke="#231815" stroke-width="2" d="M33.177,14.093L38.2,9.205c0.551-0.533,1.265-0.794,1.975-0.785
				c0.71,0.01,1.417,0.291,1.948,0.84l0,0l0,0c0.537,0.548,0.796,1.263,0.787,1.974c-0.011,0.709-0.289,1.416-0.841,1.949
				l-5.023,4.887l-5.025,4.889H21.36l-0.991,0.958"/>
			<path fill="none" stroke="#231815" stroke-width="2" d="M23.626,17.303l6.88,0.097c0.743,0.009,1.423-0.282,1.917-0.762
				c0.496-0.482,0.807-1.151,0.817-1.896l0,0l0,0c0.01-0.746-0.282-1.422-0.763-1.917c-0.481-0.497-1.152-0.808-1.899-0.817
				l-6.877-0.094l-6.881-0.097l-4.436,4.316"/>
		</g>
	</g>
	<path fill="none" stroke="#231815" stroke-width="2" d="M14.617,34.32c-0.808,0.809-2.121,0.809-2.93-0.001L1.594,24.225
		c-0.809-0.809-0.809-2.121,0-2.93l6.618-6.619c0.809-0.809,2.121-0.809,2.93,0L21.236,24.77c0.809,0.81,0.809,2.121,0,2.931
		L14.617,34.32z"/>
</g>
</svg>
