<svg version="1.1" id="레이어_1" xmlns="http://www.w3.org/2000/svg" xmlns:xlink="http://www.w3.org/1999/xlink" x="0px"
	 y="0px" width="43.897px" height="43.346px" viewBox="0 0 43.897 43.346" enable-background="new 0 0 43.897 43.346"
	 xml:space="preserve">
<g>
	<path fill="none" stroke="#231815" stroke-width="2" d="M21.816,9.423H9.667c-1.72,0-3.114,1.395-3.114,3.113v2.805H2.191
		l4.361,5.231v3.18c0,1.72,1.395,3.115,3.114,3.115h12.149c1.721,0,3.114-1.396,3.114-3.115V12.537
		C24.931,10.818,23.537,9.423,21.816,9.423z"/>
	<line fill="none" stroke="#231815" stroke-width="2" x1="11.202" y1="17.623" x2="11.202" y2="19.12"/>
	<line fill="none" stroke="#231815" stroke-width="2" x1="15.394" y1="17.623" x2="15.394" y2="19.12"/>
	<line fill="none" stroke="#231815" stroke-width="2" x1="19.585" y1="17.623" x2="19.585" y2="19.12"/>
	<path fill="none" stroke="#231815" stroke-width="2" d="M24.951,14.039h8.234c1.959,0,3.55,1.59,3.55,3.552v3.194h4.971
		l-4.971,5.966v3.62c0,1.963-1.591,3.553-3.55,3.553H19.337c-1.963,0-3.551-1.59-3.551-3.553v-3.465"/>
	<line fill="none" stroke="#231815" stroke-width="2" x1="32.434" y1="23.385" x2="32.434" y2="25.092"/>
	<line fill="none" stroke="#231815" stroke-width="2" x1="27.657" y1="23.385" x2="27.657" y2="25.092"/>
</g>
</svg>
