<svg version="1.1" id="레이어_1" xmlns="http://www.w3.org/2000/svg" xmlns:xlink="http://www.w3.org/1999/xlink" x="0px"
	 y="0px" width="43.897px" height="43.346px" viewBox="0 0 43.897 43.346" enable-background="new 0 0 43.897 43.346"
	 xml:space="preserve">
<g>
	<path fill="none" stroke="#231815" stroke-width="2" d="M24.955,36.16"/>
	<path fill="none" stroke="#231815" stroke-width="2" d="M24.955,36.953c0,2.907-2.351,5.263-5.257,5.263
		c-2.903,0-5.259-2.354-5.259-5.26"/>
	<path fill="none" stroke="#231815" stroke-width="2" d="M29.258,20.993v-0.866c-0.001-5.235-4.037-9.801-9.271-9.959
		c-5.415-0.16-9.855,4.181-9.855,9.562v1.265c0.002,5.588-1.641,11.052-4.725,15.713l28.581-0.004
		C30.905,32.044,29.258,26.58,29.258,20.993z"/>
	<line fill="none" stroke="#231815" stroke-width="2" x1="20.043" y1="10.17" x2="20.043" y2="4.768"/>
	<line fill="none" stroke="#231815" stroke-width="2" x1="20.043" y1="10.17" x2="20.043" y2="4.768"/>
	<path fill="none" stroke="#231815" stroke-width="2" d="M38.491,10.919c-2.024-4.182-5.325-7.631-9.376-9.789"/>
	<path fill="none" stroke="#231815" stroke-width="2" d="M26.983,6.229c2.744,1.568,4.991,3.944,6.438,6.811"/>
</g>
</svg>
