<svg version="1.1" id="레이어_1" xmlns="http://www.w3.org/2000/svg" xmlns:xlink="http://www.w3.org/1999/xlink" x="0px"
	 y="0px" width="43.897px" height="43.346px" viewBox="0 0 43.897 43.346" enable-background="new 0 0 43.897 43.346"
	 xml:space="preserve">
<g>
	<g>
		<path fill="none" stroke="#231815" stroke-width="2" d="M20.926,30.987c-1.148,0.099-2.343,0.15-3.568,0.15
			c-8.878,0-16.078-2.743-16.078-6.128v7.708c0,3.384,7.2,6.125,16.078,6.125c3.236,0,6.251-0.364,8.772-0.989"/>
		<path fill="none" stroke="#231815" stroke-width="2" d="M3.787,21.725c-1.588,0.949-2.508,2.076-2.508,3.284
			c0,3.385,7.2,6.128,16.078,6.128c1.226,0,2.42-0.052,3.568-0.15"/>
	</g>
	<circle fill="none" stroke="#231815" stroke-width="2" cx="31.66" cy="28.104" r="10.958"/>
	<g>
		<path fill="none" stroke="#231815" stroke-width="2" d="M33.435,17.217v-6.807c0,3.383-7.198,6.127-16.077,6.127
			c-8.878,0-16.078-2.744-16.078-6.127v7.706c0,3.383,7.2,6.126,16.078,6.126c1.326,0,2.615-0.063,3.849-0.178"/>
		<ellipse fill="none" stroke="#231815" stroke-width="2" cx="17.357" cy="10.412" rx="16.078" ry="6.125"/>
	</g>
	<g>
		<path fill="#231815" d="M36.022,26.417c0,1.121-0.294,1.989-0.884,2.596c-0.59,0.61-1.455,0.915-2.598,0.915h-1.197v3.809h-1.885
			V22.892h3.082c1.143,0,2.008,0.308,2.598,0.921C35.729,24.425,36.022,25.295,36.022,26.417z M34.139,26.417
			c0-0.656-0.153-1.117-0.463-1.384c-0.311-0.269-0.735-0.4-1.277-0.4h-1.055v3.554h1.055c0.542,0,0.967-0.13,1.277-0.394
			C33.985,27.533,34.139,27.074,34.139,26.417z"/>
	</g>
</g>
</svg>
