<svg version="1.1" id="layer_1" xmlns="http://www.w3.org/2000/svg" xmlns:xlink="http://www.w3.org/1999/xlink" x="0px"
	 y="0px" width="111.25px" height="102.662px" viewBox="0 0 111.25 102.662" enable-background="new 0 0 111.25 102.662"
	 xml:space="preserve">
<path fill="#3B1D1D" d="M55.625,0.713c-30.294,0-54.853,19.363-54.853,43.249c0,15.443,10.267,28.993,25.711,36.645
	c-0.84,2.897-5.4,18.642-5.581,19.878c0,0-0.109,0.93,0.492,1.284c0.602,0.354,1.31,0.078,1.31,0.078
	c1.726-0.24,20.012-13.086,23.177-15.316c3.162,0.448,6.418,0.682,9.743,0.682c30.294,0,54.853-19.363,54.853-43.25
	C110.478,20.076,85.919,0.713,55.625,0.713L55.625,0.713z"/>
</svg>
