<?xml version="1.0" encoding="utf-8"?>
<!-- Generator: Adobe Illustrator 14.0.0, SVG Export Plug-In . SVG Version: 6.00 Build 43363)  -->
<!DOCTYPE svg PUBLIC "-//W3C//DTD SVG 1.1//EN" "http://www.w3.org/Graphics/SVG/1.1/DTD/svg11.dtd">
<svg version="1.1" id="레이어_1" xmlns="http://www.w3.org/2000/svg" xmlns:xlink="http://www.w3.org/1999/xlink" x="0px"
	 y="0px" width="43.897px" height="43.346px" viewBox="0 0 43.897 43.346" enable-background="new 0 0 43.897 43.346"
	 xml:space="preserve">
<g>
	<path fill="none" stroke="#231815" stroke-width="2" d="M18.023,38.695c-0.862,0-1.563-0.7-1.563-1.563l0,0
		c0-0.862,0.702-1.563,1.563-1.563h6.056c0.864,0,1.563,0.701,1.563,1.563l0,0c0,0.863-0.699,1.563-1.563,1.563H18.023z"/>
	<path fill="none" stroke="#231815" stroke-width="2" d="M34.515,14.25c4.623,0,8.373,3.75,8.373,8.375S39.138,31,34.515,31V14.25z"
		/>
	<path fill="none" stroke="#231815" stroke-width="2" d="M9.385,14.25c-4.627,0-8.375,3.75-8.375,8.375S4.758,31,9.385,31V14.25z"/>
	<path fill="none" stroke="#231815" stroke-width="2" d="M9.392,14.269c1.471-5.537,6.522-9.618,12.521-9.618
		c6.059,0,11.146,4.154,12.566,9.77"/>
	<path fill="none" stroke="#231815" stroke-width="2" d="M34.522,30.619c0,3.675-2.979,6.652-6.651,6.652
		c-0.818,0-1.604-0.147-2.326-0.419"/>
	<g>
		<path fill="#231815" d="M22.226,16.146c0.575,0,1.104,0.096,1.582,0.256c0.479,0.192,0.879,0.432,1.23,0.752
			c0.335,0.318,0.606,0.702,0.799,1.15c0.191,0.464,0.288,0.974,0.288,1.518c0,0.447-0.08,0.831-0.208,1.183
			c-0.145,0.352-0.319,0.671-0.527,0.959c-0.223,0.286-0.464,0.543-0.719,0.767c-0.288,0.224-0.559,0.432-0.814,0.607
			c-0.24,0.159-0.449,0.384-0.639,0.671c-0.208,0.304-0.304,0.606-0.304,0.927v0.846h-2.063v-0.846c0-0.671,0.16-1.247,0.512-1.727
			c0.32-0.464,0.783-0.895,1.358-1.277h-0.016c0.142-0.081,0.304-0.191,0.462-0.352c0.161-0.128,0.305-0.289,0.448-0.479
			c0.128-0.177,0.222-0.367,0.318-0.591c0.081-0.207,0.129-0.432,0.129-0.687c0-0.671-0.176-1.15-0.512-1.47
			c-0.351-0.289-0.782-0.448-1.326-0.448c-0.223,0-0.446,0.048-0.654,0.145c-0.223,0.111-0.417,0.255-0.576,0.43
			c-0.176,0.193-0.304,0.417-0.4,0.656c-0.111,0.255-0.16,0.527-0.16,0.815h-2.06c0-0.512,0.095-1.006,0.319-1.486
			c0.19-0.448,0.479-0.847,0.847-1.199c0.351-0.335,0.75-0.608,1.229-0.815C21.219,16.259,21.714,16.146,22.226,16.146z
			 M23.057,27.922c0,0.319-0.111,0.591-0.304,0.814c-0.223,0.224-0.511,0.352-0.878,0.352c-0.368,0-0.656-0.128-0.864-0.352
			c-0.224-0.224-0.335-0.495-0.335-0.814c0-0.32,0.111-0.606,0.335-0.831c0.208-0.224,0.496-0.336,0.864-0.336
			c0.367,0,0.655,0.112,0.878,0.336C22.945,27.316,23.057,27.602,23.057,27.922z"/>
	</g>
</g>
</svg>
