<?xml version="1.0" encoding="utf-8"?>
<!-- Generator: Adobe Illustrator 14.0.0, SVG Export Plug-In . SVG Version: 6.00 Build 43363)  -->
<!DOCTYPE svg PUBLIC "-//W3C//DTD SVG 1.1//EN" "http://www.w3.org/Graphics/SVG/1.1/DTD/svg11.dtd">
<svg version="1.1" id="레이어_1" xmlns="http://www.w3.org/2000/svg" xmlns:xlink="http://www.w3.org/1999/xlink" x="0px"
	 y="0px" width="43.897px" height="43.346px" viewBox="0 0 43.897 43.346" enable-background="new 0 0 43.897 43.346"
	 xml:space="preserve">
<g>
	<path fill="none" stroke="#231815" stroke-width="2" d="M34.454,11.775c0.014-0.16,0.021-0.319,0.021-0.48
		c0-3.429-2.778-6.204-6.204-6.204c-0.999,0-1.939,0.235-2.774,0.654c-0.9-2.471-3.271-4.234-6.054-4.234
		c-3.557,0-6.442,2.885-6.442,6.441c0,0.162,0.008,0.32,0.02,0.479h-1.81c-3.624,0-6.56,2.938-6.56,6.562
		c0,3.623,2.937,6.561,6.56,6.561h23.144c2.701,0,4.893-2.19,4.893-4.892C39.248,13.994,37.11,11.83,34.454,11.775z"/>
	<polyline fill="none" stroke="#231815" stroke-width="2" points="39.192,33.98 39.192,26.684 21.949,26.684 21.949,33.98 	"/>
	<polyline fill="none" stroke="#231815" stroke-width="2" points="21.949,33.98 21.949,26.684 4.705,26.684 4.705,33.98 	"/>
	<circle fill="none" stroke="#231815" stroke-width="2" cx="38.861" cy="37.856" r="3.979"/>
	<circle fill="none" stroke="#231815" stroke-width="2" cx="21.949" cy="37.856" r="3.979"/>
	<circle fill="none" stroke="#231815" stroke-width="2" cx="5.036" cy="37.856" r="3.979"/>
</g>
</svg>
